# xmcd
#
# Track frame offsets:
#	150
#	11350
#	20428
#	29812
#	38741
#	49390
#	60563
#	70864
#	81032
#	93760
#	104220
#	115760
#	126855
#	138215
#	148323
#	160207
#	170157
#	180497
#	192537
#	204830
#	217369
#	228175
#	237884
#	249070
#
# Disc length: 3459 seconds
#
# Revision: 1
# Processed by: cddbd v1.5.2PL0 Copyright (c) Steve Scherf et al.
# Submitted via: audiograbber 1.83.01
#
DISCID=550d8118
DTITLE=Various Artist - Hillbilly Bop, Boogie and The Honky Tonk Blues, 2
DYEAR=1900
DGENRE=Honky Tonk
TTITLE0=Joe Price - Keep The Wolves Away
TTITLE1=Red Hays - Doggone Woman
TTITLE2=Chuck Mayfield - Washing On The Line
TTITLE3=Cotton Henry - Alibying Sweetie
TTITLE4=Bob Jones - You'd Better Behave Baby
TTITLE5=Bill Nettles - Gumbo-Mumbo (Papa Had To Go)
TTITLE6=Al Petty - Steeling The Boogie
TTITLE7=Pat Patterson - Mister Hillbilly
TTITLE8=Joe Price - It Makes Me Happy
TTITLE9=Jimmie Walton - High As A Georgia Pine
TTITLE10=Biff Collie - What This Old World Needs
TTITLE11=Arlie Duff - Fifteen Cents A Sop
TTITLE12=Les Chambers - Too Much Pride
TTITLE13=Fred Crawford - First On Your List
TTITLE14=Western Melody Makers - Who Put The Turtle In Myrtle's Girdle
TTITLE15=Dick Stubbs - Hillbilly Swing
TTITLE16=Arlie Duff - Courtin's Here To Stay
TTITLE17=Bill Nettles - Wine-O Boogie
TTITLE18=Les Chambers - Bald Headed Daddy (Hair Today-Gone Tomorrow)
TTITLE19=Fred Crawford - I Just Need Some Lovin'
TTITLE20=DeWayne Higdon - Take Your Time (Cause Every Minute Counts)
TTITLE21=Les Chambers and Johnny Mathis - Everybody Else Does (Why Can't I)
TTITLE22=Hoyt Scoggins - Trudy
TTITLE23=Al Petty - Steel Guitar Special
EXTD=
EXTT0=
EXTT1=
EXTT2=
EXTT3=
EXTT4=
EXTT5=
EXTT6=
EXTT7=
EXTT8=
EXTT9=
EXTT10=
EXTT11=
EXTT12=
EXTT13=
EXTT14=
EXTT15=
EXTT16=
EXTT17=
EXTT18=
EXTT19=
EXTT20=
EXTT21=
EXTT22=
EXTT23=
PLAYORDER=
